<?xml version="1.0" standalone="no"?>
<!DOCTYPE svg PUBLIC "-//W3C//DTD SVG 20010904//EN"
 "http://www.w3.org/TR/2001/REC-SVG-20010904/DTD/svg10.dtd">
<svg version="1.0" xmlns="http://www.w3.org/2000/svg"
 width="826.000000pt" height="827.000000pt" viewBox="0 0 826.000000 827.000000"
 preserveAspectRatio="xMidYMid meet">
<metadata>
Created by potrace 1.15, written by Peter Selinger 2001-2017
</metadata>
<g transform="translate(0.000000,827.000000) scale(0.100000,-0.100000)"
fill="#000000" stroke="none">
<path d="M645 8249 c-33 -11 -66 -26 -73 -33 -11 -11 -3 -14 45 -20 83 -10
285 -34 443 -52 157 -18 186 -31 221 -101 13 -27 40 -77 60 -113 168 -303 199
-361 199 -374 0 -9 -11 -23 -24 -32 -22 -13 -37 -14 -115 -5 -49 6 -161 16
-248 21 -87 6 -190 13 -229 16 -58 5 -72 4 -77 -9 -3 -8 -11 -396 -17 -863 -6
-467 -13 -859 -16 -872 -5 -25 -97 -126 -106 -116 -13 12 -65 -27 -84 -63 -10
-21 -29 -55 -41 -75 -32 -53 -30 -81 11 -111 18 -15 42 -43 53 -64 18 -34 24
-38 64 -41 50 -4 59 -13 59 -63 0 -31 -4 -37 -25 -41 -20 -4 -25 0 -30 22 -8
34 -44 48 -62 23 -19 -24 -15 -64 7 -93 11 -14 20 -40 20 -58 0 -19 9 -45 20
-59 11 -14 20 -31 20 -38 0 -15 22 -25 56 -25 24 0 35 20 12 21 -7 0 3 7 22
15 42 18 100 87 100 118 0 12 6 31 14 41 13 18 15 18 50 -9 46 -35 78 -32 91
10 16 51 35 67 69 60 33 -7 39 -7 86 -4 17 1 39 -7 50 -17 20 -18 21 -18 45 5
14 13 25 29 25 35 0 14 32 45 46 45 5 0 22 -10 37 -22 15 -12 49 -28 75 -34
41 -11 50 -10 72 4 45 30 72 42 94 42 25 0 59 26 75 57 7 13 11 86 11 192 0
159 -1 171 -20 181 -13 7 -87 8 -221 3 l-201 -6 -19 24 c-17 22 -18 41 -13
274 6 225 8 252 25 269 20 22 38 25 296 52 205 22 202 24 201 -105 0 -47 4
-120 8 -161 8 -67 11 -75 29 -72 28 5 28 4 16 68 -13 67 -15 174 -3 174 14 0
40 55 35 75 -3 11 -6 63 -7 115 -4 127 -15 190 -32 190 -9 0 -14 -12 -14 -34
0 -29 -3 -33 -24 -33 -24 0 -24 1 -32 126 -5 69 -7 150 -6 179 1 28 2 69 2 90
0 20 0 78 1 127 2 90 0 285 -4 485 -1 58 1 132 5 165 4 33 9 87 12 120 2 33 9
72 14 87 10 23 15 26 38 19 38 -10 46 -46 37 -156 -4 -49 -6 -124 -5 -165 4
-77 28 -179 47 -192 6 -5 5 -8 -4 -8 -7 0 1 -13 18 -28 19 -16 35 -42 39 -62
6 -30 -3 -852 -10 -935 -2 -17 2 -29 8 -28 17 3 283 25 344 29 30 2 123 10
205 19 160 16 232 15 227 -6 -2 -6 -16 -30 -31 -53 -32 -46 -44 -79 -65 -181
-25 -114 -28 -152 -17 -171 6 -11 17 -37 24 -58 l13 -39 14 33 14 34 12 -73
c7 -40 20 -81 29 -91 16 -17 15 -19 -4 -29 -11 -6 -33 -11 -48 -11 -16 0 -38
-6 -48 -14 -19 -13 -18 -16 12 -72 17 -33 50 -97 74 -144 24 -47 50 -89 57
-93 6 -4 12 -20 12 -34 0 -22 3 -24 23 -18 12 4 37 9 54 12 28 4 34 1 44 -21
7 -14 16 -26 21 -26 4 0 8 -7 8 -15 0 -8 9 -24 20 -35 17 -17 20 -37 24 -148
3 -71 10 -141 15 -155 6 -15 8 -33 5 -41 -3 -7 2 -16 11 -20 12 -4 15 -17 14
-53 -1 -27 3 -58 9 -70 15 -28 15 -28 -4 -47 -14 -15 -13 -19 13 -44 l28 -29
0 341 c1 358 15 617 39 702 12 44 41 105 83 178 7 12 13 28 13 37 0 9 7 32 15
52 12 29 12 37 1 46 -7 6 -11 23 -8 42 4 27 2 31 -12 26 -25 -10 -19 10 14 45
35 37 37 42 10 33 -19 -6 -19 -4 -9 19 7 14 17 26 23 26 7 0 27 19 46 41 19
23 44 52 55 65 11 12 49 45 85 73 36 28 71 55 78 61 7 7 34 21 60 32 26 12 57
28 70 36 24 15 148 61 167 61 6 0 -15 -11 -45 -26 -30 -14 -49 -28 -42 -30 6
-3 10 -9 6 -14 -3 -5 10 -9 28 -9 18 1 42 1 53 1 58 -1 66 0 61 8 -3 4 8 8 23
7 16 -1 27 -4 25 -8 -2 -4 0 -9 6 -13 5 -3 10 -1 10 5 0 7 12 9 35 4 27 -5 35
-3 33 7 -2 8 15 16 47 23 28 6 55 14 61 18 7 4 36 4 65 -1 30 -5 70 -8 89 -7
26 1 34 -3 33 -14 -3 -19 39 -25 67 -10 14 7 23 6 34 -6 9 -9 14 -19 11 -24
-3 -4 1 -10 8 -12 17 -7 38 2 31 13 -3 5 2 9 11 9 9 0 13 -4 10 -10 -8 -13 1
-13 26 1 28 15 53 -5 39 -32 -6 -10 -12 -42 -13 -70 -3 -52 -21 -75 -37 -49
-5 8 -9 7 -13 -4 -4 -9 -2 -16 3 -16 17 0 11 -26 -9 -44 -11 -10 -25 -15 -30
-11 -6 3 -11 -1 -11 -9 0 -9 7 -16 15 -16 9 0 20 -11 25 -25 5 -14 15 -25 22
-25 10 0 10 -2 -1 -9 -19 -12 -4 -31 25 -31 18 0 24 -5 24 -21 0 -15 5 -19 15
-15 9 3 15 0 15 -9 0 -8 6 -14 13 -12 7 1 13 -10 15 -28 l2 -30 -19 23 c-11
12 -22 22 -25 22 -12 0 -6 -48 7 -53 15 -6 14 -65 -2 -95 -7 -13 -17 -19 -26
-16 -17 7 -19 20 -5 29 6 4 8 11 4 16 -3 5 0 17 7 26 11 13 11 15 -6 12 -11
-3 -21 -13 -23 -24 -7 -49 -13 -65 -22 -60 -16 10 -20 -12 -5 -25 23 -19 18
-28 -11 -22 -18 3 -25 1 -20 -6 8 -13 -30 -36 -45 -26 -6 3 -13 -3 -16 -15 -3
-11 -14 -23 -24 -26 -10 -4 -18 -11 -16 -18 1 -6 -8 -13 -21 -15 -12 -2 -20
-7 -17 -12 3 -4 -11 -18 -30 -30 -19 -12 -35 -26 -35 -31 0 -5 -4 -9 -10 -9
-5 0 -10 9 -10 20 0 14 -7 20 -22 20 -20 0 -20 -1 -5 -18 13 -15 14 -21 4 -31
-9 -10 -8 -15 8 -27 19 -14 19 -15 -3 -20 -12 -4 -22 -9 -22 -13 0 -13 16 -29
36 -35 17 -5 23 -18 29 -59 12 -81 14 -139 6 -177 -8 -35 -6 -41 17 -87 7 -13
12 -33 12 -46 0 -13 10 -44 23 -68 21 -39 22 -47 11 -76 -13 -30 -41 -64 -76
-91 -21 -17 -165 -52 -183 -46 -17 7 -85 -22 -85 -35 0 -6 -16 -11 -35 -11
-31 0 -38 5 -49 31 l-13 31 -7 -26 c-10 -39 26 -83 92 -114 46 -21 60 -23 88
-14 25 7 37 6 53 -5 27 -18 27 -30 0 -38 -20 -7 -20 -7 -2 -27 17 -19 17 -20
0 -33 -22 -16 -22 -35 1 -35 9 0 25 -7 35 -14 19 -15 95 -12 111 4 7 7 6 10
-2 10 -7 0 -12 5 -12 10 0 6 9 10 20 10 10 0 24 8 29 18 9 15 12 15 21 2 15
-22 12 -30 -12 -40 -23 -10 -23 -10 2 -9 14 1 34 0 45 -1 18 -1 17 -3 -5 -11
-33 -13 -64 -18 -185 -29 -160 -14 -195 -20 -275 -47 -72 -24 -143 -33 -157
-19 -4 3 6 19 20 34 32 33 34 52 7 52 -22 0 -26 10 -9 27 16 16 -5 25 -33 14
-14 -5 -30 -6 -37 -1 -15 8 5 47 91 177 44 66 88 159 88 183 0 12 -26 -8 -103
-81 -41 -40 -65 -55 -78 -52 -10 3 -19 0 -19 -6 0 -6 -10 -21 -21 -32 l-22
-22 24 5 c13 3 30 7 38 9 10 3 15 -7 17 -36 1 -22 0 -32 -2 -22 -3 9 -10 17
-15 17 -6 0 -7 -9 -4 -20 5 -14 2 -20 -10 -20 -9 0 -13 -5 -10 -10 9 -15 -4
-50 -18 -50 -7 0 -19 -9 -27 -20 -8 -11 -22 -20 -32 -20 -17 0 -42 -33 -32
-42 2 -3 0 -18 -6 -34 -15 -39 -15 -115 0 -124 7 -4 9 -13 5 -20 -4 -6 1 -17
10 -24 14 -10 15 -16 6 -34 -9 -17 -9 -26 1 -42 16 -25 19 -25 48 2 18 17 22
18 17 5 -4 -10 0 -20 11 -26 15 -9 15 -10 -4 -11 -12 0 -26 -10 -32 -22 -8
-18 -11 -19 -11 -5 -1 20 -21 23 -21 2 0 -7 7 -18 16 -23 14 -8 14 -12 3 -31
-8 -11 -22 -24 -31 -27 -18 -5 -23 -21 -20 -56 1 -10 -3 -18 -8 -18 -6 0 -10
-6 -10 -14 0 -7 -7 -20 -16 -27 -14 -11 -19 -10 -33 6 -9 11 -27 26 -40 33
-20 12 -25 12 -32 0 -14 -21 -11 -35 18 -68 22 -27 28 -29 35 -16 5 9 18 16
30 16 17 0 18 -2 8 -15 -10 -12 -10 -15 4 -15 9 0 16 5 16 10 0 6 9 10 20 10
23 0 24 -4 10 -30 -6 -12 -7 -28 -1 -43 8 -21 6 -26 -12 -31 -37 -10 -40 -7
-34 29 7 46 -18 64 -44 31 -17 -21 -18 -21 -25 -1 -13 36 -58 74 -86 75 -26 0
-28 -3 -28 -39 0 -22 5 -41 13 -44 8 -3 6 -10 -8 -21 -15 -12 -17 -18 -7 -24
15 -10 32 -66 32 -104 0 -16 4 -28 9 -28 5 0 12 -14 16 -30 4 -17 10 -30 15
-30 11 0 40 -122 40 -170 0 -35 3 -40 23 -41 12 0 16 -3 9 -6 -17 -7 -5 -23
18 -23 20 0 36 -17 26 -27 -3 -3 -12 0 -21 7 -13 11 -15 9 -13 -14 1 -14 8
-26 15 -26 8 0 16 -7 19 -15 4 -8 15 -15 25 -15 10 0 19 -4 19 -10 0 -5 8 -10
18 -10 20 -1 52 -23 52 -37 0 -6 11 -8 25 -5 16 3 33 -2 45 -13 22 -20 27 -45
9 -45 -6 0 -3 -7 5 -16 23 -22 20 -34 -9 -34 -28 0 -33 -15 -9 -28 11 -6 5 -8
-20 -8 -30 1 -35 4 -30 20 4 12 2 16 -5 12 -6 -4 -11 -2 -11 3 0 6 9 11 21 11
12 0 17 4 14 11 -4 6 -14 7 -24 3 -9 -4 -26 -6 -39 -5 -25 1 -55 25 -45 35 4
3 -8 3 -25 0 -21 -4 -32 -3 -32 5 0 6 5 11 10 11 13 0 13 11 0 30 -6 9 -13 11
-17 5 -5 -5 -14 -11 -21 -13 -9 -1 -10 2 -1 16 8 12 22 18 40 17 15 -1 26 2
23 7 -7 11 -52 10 -59 -2 -13 -21 -31 -8 -55 43 -14 28 -29 55 -34 58 -5 4 -6
20 -2 35 7 27 6 28 -7 10 -13 -18 -15 -14 -21 47 -5 45 -12 67 -21 67 -7 0
-34 -19 -59 -42 -44 -41 -47 -48 -66 -137 -10 -52 -23 -98 -27 -102 -4 -4 -34
-15 -66 -23 -73 -19 -110 -42 -168 -104 l-46 -48 82 -113 c46 -61 130 -162
188 -224 57 -62 128 -143 158 -182 29 -38 55 -72 58 -75 26 -22 61 -75 57 -86
-3 -7 0 -11 7 -9 7 2 39 -30 72 -72 33 -41 72 -89 86 -107 53 -64 169 -216
169 -221 0 -3 -6 -5 -13 -5 -13 0 -41 -39 -33 -47 2 -3 15 4 27 16 27 25 35
26 46 7 4 -8 35 -43 68 -78 33 -35 87 -95 120 -134 33 -39 112 -127 176 -195
l117 -124 3 -147 c2 -81 0 -150 -4 -154 -4 -4 -7 8 -7 28 l0 35 -58 -10 c-31
-5 -68 -18 -81 -28 -13 -11 -29 -19 -37 -19 -7 0 -26 -18 -44 -39 -17 -22 -39
-42 -49 -46 -10 -3 -23 -17 -30 -31 -6 -14 -15 -22 -21 -19 -5 3 -26 -4 -47
-15 -21 -11 -44 -20 -51 -20 -7 0 -10 -5 -7 -10 3 -6 -3 -10 -14 -10 -24 0
-51 -25 -51 -47 0 -9 3 -13 6 -10 10 10 43 -37 41 -58 -1 -11 6 -21 18 -24 11
-3 20 -13 20 -21 0 -8 9 -15 20 -15 22 0 49 -35 59 -76 5 -22 2 -28 -15 -32
-15 -4 -20 -11 -15 -23 5 -12 2 -15 -10 -10 -8 3 -18 6 -20 6 -2 0 -4 8 -4 17
0 15 -1 15 -13 1 -6 -9 -19 -19 -27 -22 -8 -3 -5 -4 7 -2 15 3 23 -2 27 -18 8
-28 8 -71 0 -63 -8 7 -54 -46 -54 -63 0 -7 7 -10 16 -6 8 3 13 2 10 -3 -3 -4
6 -13 19 -19 14 -7 25 -16 25 -21 0 -5 12 -12 26 -15 14 -4 43 -18 65 -31 21
-14 43 -25 48 -25 11 0 46 -18 84 -44 27 -18 28 -18 42 0 8 10 15 23 15 27 0
18 45 46 64 41 10 -4 22 0 27 7 7 12 9 12 9 0 0 -11 4 -11 22 1 24 14 58 13
58 -2 0 -5 -4 -12 -10 -15 -5 -3 -10 -15 -10 -27 0 -14 -5 -18 -15 -14 -9 3
-15 0 -15 -9 0 -8 8 -15 17 -15 15 0 14 -2 -3 -15 -10 -8 -23 -14 -29 -15 -5
0 -3 5 5 10 10 7 12 12 4 17 -6 5 -14 15 -17 23 -3 8 -6 2 -6 -15 -1 -23 -4
-26 -11 -15 -15 24 -21 6 -7 -23 15 -34 34 -41 61 -24 30 20 41 19 38 -2 -2
-13 3 -18 14 -17 12 1 20 -9 25 -32 12 -59 -10 -53 -196 47 -101 55 -120 66
-125 71 -3 3 -16 11 -30 18 -227 114 -316 175 -589 410 -30 26 -94 79 -142
117 -194 155 -275 229 -520 474 -310 311 -338 348 -790 1026 -162 244 -236
330 -272 319 -36 -11 -108 -49 -165 -88 -29 -19 -79 -49 -110 -66 -31 -17 -93
-62 -137 -101 -44 -38 -105 -84 -135 -101 -69 -40 -137 -90 -220 -163 -36 -31
-75 -62 -86 -67 -12 -6 -27 -21 -33 -35 -18 -39 -41 -205 -51 -359 -8 -140 -8
-141 -62 -264 -46 -108 -61 -132 -115 -186 l-63 -63 -3 -104 c-3 -75 -10 -119
-25 -158 -77 -200 -208 -642 -239 -809 -18 -99 -53 -303 -53 -312 0 -5 1814
-8 4030 -8 l4030 0 0 153 c0 176 -7 208 -114 528 -69 208 -119 324 -186 440
-40 67 -41 71 -23 84 24 19 108 19 180 0 31 -8 77 -15 100 -15 l43 0 0 325 0
325 -42 0 c-60 -1 -90 -21 -108 -72 -11 -30 -22 -44 -37 -46 -31 -5 -113 57
-113 84 0 24 -17 34 -56 34 -45 0 -64 -17 -57 -50 3 -19 1 -30 -6 -30 -6 0
-11 -18 -11 -44 0 -25 -4 -47 -9 -51 -16 -10 -89 25 -94 46 -3 10 -1 22 5 25
5 3 7 12 4 20 -3 7 0 11 7 8 8 -3 13 6 15 21 1 20 -6 30 -33 46 -19 12 -35 25
-35 30 0 5 -8 9 -18 9 -11 0 -24 11 -30 25 -6 14 -8 25 -3 25 5 0 12 -10 15
-23 6 -21 7 -21 20 -4 8 10 20 16 27 15 9 -2 15 8 17 30 2 23 -1 32 -11 32
-12 0 -49 42 -53 60 -11 54 -16 59 -47 53 -18 -3 -35 -11 -38 -16 -13 -19 -31
35 -24 70 7 39 -12 62 -51 63 -21 0 -21 1 -5 36 17 38 10 37 98 17 15 -4 23 1
28 16 3 12 10 21 15 21 15 0 41 -57 42 -94 1 -18 7 -41 14 -51 12 -15 18 -17
39 -7 23 10 25 17 25 70 0 32 5 63 11 69 7 7 2 19 -18 41 -22 24 -34 29 -55
25 -14 -3 -28 -13 -31 -24 -6 -22 -27 -26 -27 -4 0 8 -8 19 -19 24 -16 9 -17
17 -9 66 5 31 6 60 3 66 -4 5 -21 -2 -39 -16 -22 -16 -46 -25 -71 -25 -21 0
-54 -10 -74 -22 -48 -29 -47 -28 -32 -37 9 -6 10 -11 3 -15 -6 -4 -56 39 -111
94 -56 55 -105 100 -111 100 -5 0 -14 9 -21 21 -9 18 -8 20 8 15 42 -13 83
-16 83 -6 0 5 -4 10 -10 10 -5 0 -10 6 -10 13 0 16 -37 15 -68 -2 -19 -10 -28
-8 -72 21 -30 20 -48 38 -45 46 3 7 0 10 -6 7 -14 -10 -77 22 -89 45 -6 11
-17 17 -24 14 -10 -4 -13 0 -9 14 3 14 -2 21 -20 26 -14 3 -33 3 -41 0 -9 -3
-41 6 -71 20 -31 14 -60 26 -65 26 -6 0 -10 5 -10 11 0 6 -9 9 -20 6 -11 -3
-34 4 -52 17 -18 12 -51 30 -73 40 -22 10 -61 29 -87 42 -55 28 -86 31 -94 9
-4 -8 -10 -12 -16 -9 -5 3 -7 13 -4 21 3 8 1 11 -5 8 -6 -4 -19 1 -30 11 -21
19 -35 27 -116 69 -56 28 -66 44 -33 52 11 3 20 9 20 13 0 16 42 18 60 2 15
-12 43 -16 118 -17 92 -2 102 -4 136 -30 32 -24 46 -28 113 -29 75 -1 78 0 87
25 14 42 0 78 -39 96 -36 17 -43 31 -37 73 2 16 14 30 31 38 46 20 65 126 31
167 -7 8 -4 20 8 36 20 25 23 89 8 142 -12 39 -55 37 -95 -5 -31 -33 -29 -48
6 -51 14 -1 19 -7 16 -18 -3 -10 5 -23 17 -32 21 -14 21 -17 7 -31 -17 -17
-37 -21 -37 -8 0 4 5 13 12 20 24 24 1 21 -35 -5 -39 -27 -47 -47 -23 -56 17
-7 59 3 67 16 4 5 11 -19 18 -54 10 -59 9 -65 -11 -86 -31 -33 -73 -30 -115 8
-20 17 -50 38 -69 46 -30 15 -35 15 -51 1 -10 -9 -41 -21 -68 -28 -44 -11 -55
-10 -82 4 l-32 16 5 -40 c3 -22 1 -40 -4 -40 -5 0 -27 -18 -48 -40 -44 -45
-68 -50 -100 -19 -20 18 -27 20 -53 11 -18 -6 -31 -7 -31 -2 0 5 -7 6 -17 3
-11 -4 -14 -3 -9 5 11 17 -36 15 -60 -3 -30 -23 -71 -19 -90 9 -8 14 -29 28
-45 31 -16 4 -42 17 -58 30 -15 13 -45 30 -67 38 -21 7 -59 26 -83 43 -152
102 -174 109 -226 74 -16 -11 -37 -20 -45 -19 -11 0 -10 3 3 8 18 6 18 8 2 21
-14 11 -18 11 -31 -2 -13 -13 -21 -13 -52 -3 -20 7 -40 19 -44 27 -19 36 -38
87 -47 125 -5 24 -23 65 -40 91 -29 46 -31 54 -31 148 0 108 18 205 44 233 9
10 16 22 16 28 0 11 50 127 76 174 7 14 11 29 7 32 -3 4 -1 13 5 20 7 8 9 16
6 20 -11 11 8 48 29 57 18 7 18 9 5 9 -25 1 -23 32 2 38 19 5 20 6 3 19 -16
12 -14 13 19 14 20 0 40 -4 43 -10 3 -6 -3 -10 -14 -10 -18 0 -19 -3 -11 -25
7 -20 6 -25 -5 -25 -8 0 -15 -9 -15 -20 0 -11 6 -20 14 -20 8 0 16 -5 18 -11
5 -14 48 6 48 21 0 6 11 10 24 10 14 0 31 7 39 15 8 8 17 11 21 8 3 -4 6 7 6
24 0 32 -14 43 -51 43 -16 0 -19 4 -14 23 4 12 12 27 18 32 7 7 8 6 3 -2 -4
-7 2 -17 13 -23 18 -9 21 -7 27 15 3 14 3 32 0 41 -3 8 1 22 9 30 8 9 15 29
15 45 0 25 -3 29 -19 24 -16 -5 -18 -2 -14 14 3 11 11 26 19 32 8 6 14 28 14
48 0 51 10 81 26 81 17 0 18 17 2 23 -7 2 -10 8 -6 12 5 5 16 1 27 -9 14 -13
24 -14 46 -6 24 9 26 12 14 28 -8 9 -23 25 -35 34 -21 17 -21 23 -18 270 2
150 -1 247 -6 238 -5 -8 -12 -11 -17 -7 -10 10 12 43 26 40 7 -2 11 14 10 40
0 38 -1 40 -11 19 -7 -13 -17 -21 -26 -17 -7 3 -18 5 -23 5 -13 0 -1 38 22 71
14 20 15 29 7 37 -9 9 -8 12 4 12 9 0 19 -10 21 -22 5 -25 9 23 10 107 1 37
-3 50 -14 50 -26 1 -39 15 -30 33 30 59 42 100 31 107 -6 4 -10 16 -10 27 0
20 -1 21 -20 3 -23 -21 -39 -13 -21 9 7 8 10 19 8 23 -3 5 2 26 12 48 17 38
15 104 -3 162 -5 15 1 22 27 31 18 7 43 12 56 12 25 0 73 -29 66 -40 -2 -4 9
-20 25 -35 28 -26 30 -27 30 -8 0 11 -11 37 -25 58 -14 20 -32 65 -40 98 -8
34 -22 67 -31 74 -21 15 -29 92 -26 238 2 96 4 101 32 130 35 36 38 55 10 72
-46 29 -50 58 -40 249 5 99 14 287 20 419 5 132 14 299 20 370 5 72 12 194 15
273 l6 142 -2463 -1 c-2422 0 -2464 -1 -2523 -20z m2981 -1603 c-21 -7 -44
-20 -51 -29 -7 -9 -17 -17 -24 -17 -6 0 -11 -4 -11 -8 0 -4 -18 -19 -39 -32
-22 -14 -45 -34 -51 -45 -6 -11 -36 -40 -66 -64 -30 -24 -54 -48 -54 -54 0 -6
-24 -32 -52 -60 -80 -74 -151 -104 -78 -33 17 16 30 36 30 43 0 8 4 12 8 9 4
-2 8 4 8 14 0 16 -2 16 -23 3 -35 -23 -28 -7 27 63 61 76 142 138 170 131 11
-3 20 -1 20 5 0 6 9 8 19 5 10 -2 25 -1 32 4 10 6 8 9 -8 9 l-23 0 21 21 c11
11 23 18 26 15 3 -2 22 4 41 15 21 10 54 19 77 18 l40 -1 -39 -12z m-2619
-899 c34 -22 40 -30 37 -54 -2 -16 -9 -41 -16 -55 -16 -30 -72 -88 -86 -88 -6
0 -31 -16 -57 -36 -50 -38 -78 -41 -83 -9 -3 11 -10 24 -18 28 -8 4 -14 14
-14 22 0 42 -38 20 -62 -35 -6 -14 -12 -20 -15 -14 -2 7 -12 10 -22 7 -28 -7
-35 44 -10 71 11 11 18 29 17 41 -2 14 3 21 20 23 16 2 22 8 18 18 -3 8 0 14
7 14 7 0 23 12 36 25 13 14 29 25 35 25 7 0 21 9 31 20 10 11 24 20 32 20 8 0
21 7 29 15 18 17 50 7 121 -38z m3538 -383 c28 -9 59 -21 70 -25 11 -5 29 -10
40 -11 37 -5 155 13 168 25 6 7 42 13 79 14 63 2 68 1 92 -28 31 -37 34 -83 6
-106 -23 -20 -18 -55 12 -85 14 -14 17 -27 12 -52 -3 -20 -1 -36 5 -40 18 -11
13 -26 -9 -26 -11 0 -23 7 -26 15 -3 8 -14 13 -25 12 -23 -4 -30 -10 -33 -34
-2 -11 -13 -19 -29 -21 -21 -3 -27 -9 -27 -26 0 -15 -7 -26 -20 -29 -12 -3
-20 -14 -20 -25 0 -11 -6 -23 -12 -26 -10 -5 -10 -7 0 -12 27 -13 9 -20 -45
-19 -71 1 -118 27 -101 54 13 21 -9 81 -29 81 -7 0 -13 9 -13 20 0 11 -4 20
-9 20 -13 0 -101 117 -101 135 0 10 -14 33 -30 52 l-31 35 18 31 c19 32 20 67
2 67 -5 0 -9 5 -9 10 0 13 7 13 65 -6z m-608 -835 c4 -14 10 -18 22 -13 9 4
37 8 63 8 25 1 52 7 60 12 18 14 58 15 58 2 0 -5 7 -8 15 -5 8 4 17 2 20 -3 3
-5 -4 -11 -15 -15 -11 -3 -20 -11 -20 -16 0 -13 9 -11 26 6 9 8 31 15 49 15
24 0 35 5 38 18 3 9 5 2 6 -15 1 -31 12 -39 44 -34 4 0 7 -6 7 -14 0 -8 -8
-16 -17 -16 -10 -1 -29 -3 -43 -4 -15 -2 -35 6 -48 19 -15 13 -22 16 -20 7 4
-17 -37 -41 -69 -41 -15 0 -28 10 -38 30 -17 34 -49 40 -81 15 -19 -15 -19
-15 1 -12 11 1 26 6 33 11 23 14 35 -9 16 -29 -12 -12 -27 -15 -50 -12 -20 3
-40 0 -53 -9 -21 -15 -46 -10 -35 7 3 5 10 7 15 4 5 -4 9 3 9 14 0 12 -7 21
-15 21 -8 0 -15 -4 -15 -10 0 -5 -11 -10 -25 -10 -16 0 -25 6 -25 16 0 8 4 13
9 9 12 -7 34 32 26 44 -5 8 11 16 38 20 5 0 11 -8 14 -20z m-197 -86 c0 -13
59 -42 65 -33 4 6 13 6 23 1 30 -15 116 -34 162 -35 25 -1 50 -4 55 -7 6 -3
27 -4 48 -1 27 3 37 8 33 18 -3 8 -1 14 4 14 6 0 10 -7 10 -15 0 -13 17 -15
123 -10 67 3 144 7 171 8 34 1 51 -2 54 -12 3 -8 0 -11 -7 -7 -6 4 -11 1 -11
-8 0 -9 -10 -22 -22 -30 -24 -16 -101 -38 -130 -37 -10 0 -18 -7 -18 -15 0 -8
-1 -14 -2 -14 -2 -1 -60 -3 -130 -7 l-127 -5 -25 27 c-15 16 -26 25 -26 22 0
-3 -16 1 -35 9 l-35 14 0 -30 c0 -16 5 -30 12 -30 6 0 26 -16 44 -35 19 -21
26 -35 18 -35 -8 0 -14 -7 -14 -14 0 -17 102 -68 170 -86 108 -28 125 -34 107
-38 -36 -8 -4 -22 36 -16 23 4 39 3 35 -1 -4 -5 -3 -14 3 -22 9 -10 8 -18 -5
-31 -18 -21 -21 -42 -6 -42 13 0 30 -41 23 -53 -3 -5 -10 -4 -16 2 -7 7 -14 7
-24 0 -9 -8 -17 -8 -27 0 -11 9 -16 9 -21 0 -5 -7 -10 -7 -14 -2 -9 14 -61 25
-61 14 0 -5 8 -12 18 -14 11 -3 7 -5 -10 -6 -14 0 -28 3 -30 8 -1 4 -12 5 -23
0 -19 -7 -18 -8 4 -8 19 -1 21 -4 11 -16 -6 -8 -9 -19 -5 -25 9 -15 -25 -25
-45 -12 -14 8 -21 7 -34 -7 -9 -10 -14 -20 -12 -22 2 -2 -48 -4 -112 -4 -110
0 -120 2 -167 28 -27 16 -57 35 -66 43 -8 8 -21 14 -27 14 -6 0 -16 9 -22 19
-5 11 -23 22 -40 26 -16 4 -30 11 -30 16 0 14 -28 11 -33 -3 -2 -7 -8 -10 -12
-6 -5 5 -2 39 5 78 11 57 17 70 32 70 24 0 23 12 -2 28 -12 7 -18 17 -14 23 4
7 11 6 20 -2 10 -8 14 -8 14 0 0 6 14 11 30 11 39 0 50 25 21 51 -11 11 -22
27 -22 37 -2 28 3 56 11 67 4 6 11 26 15 45 4 19 16 46 26 59 11 13 19 30 19
37 0 8 9 14 20 14 11 0 20 -3 20 -7z m1535 -1285 c-7 -23 -7 -23 10 -3 10 12
15 14 12 5 -2 -8 5 -25 16 -37 23 -26 19 -34 -17 -37 -27 -1 -37 -16 -11 -16
8 0 15 -4 15 -10 0 -5 9 -10 21 -10 11 0 17 5 14 10 -3 6 1 10 9 10 12 0 16
-10 16 -40 0 -41 20 -55 37 -26 10 18 97 35 145 29 25 -4 48 -17 75 -44 21
-21 44 -39 51 -39 6 0 12 -4 12 -9 0 -17 54 -69 75 -73 12 -2 28 -20 39 -43
10 -22 25 -44 32 -48 18 -10 19 -103 2 -110 -8 -4 0 -17 24 -39 34 -31 36 -37
42 -114 8 -107 26 -157 57 -164 16 -4 20 -8 11 -14 -6 -4 -12 -14 -12 -23 0
-11 7 -14 25 -11 14 3 25 2 25 -3 0 -8 67 -25 83 -21 12 3 8 -3 -18 -34 -28
-32 -31 -49 -12 -58 6 -3 3 -4 -7 -3 -10 1 -21 -4 -23 -10 -3 -7 2 -13 10 -13
14 0 35 18 36 33 0 4 18 42 38 85 20 42 36 83 35 90 -2 6 1 12 7 12 9 0 35 61
36 85 1 6 7 21 14 34 12 21 11 26 -5 38 -17 12 -16 13 7 15 13 0 29 1 35 1 7
0 9 8 6 20 -4 15 -2 18 8 12 8 -5 11 -4 6 3 -8 13 24 83 36 76 4 -3 8 10 8 28
0 22 7 39 20 48 12 8 20 26 20 42 0 15 4 29 8 32 4 2 9 21 10 42 2 20 7 44 13
53 18 28 -1 -95 -25 -167 -58 -168 -233 -553 -305 -667 -13 -22 -29 -49 -35
-60 -85 -159 -387 -516 -663 -786 -77 -74 -147 -138 -156 -142 -9 -3 -17 -12
-17 -19 0 -24 -309 -299 -335 -298 -5 1 1 10 15 21 107 88 130 112 125 133 -6
21 -6 21 9 2 12 -15 16 -16 16 -5 0 8 21 33 47 55 85 71 124 114 117 126 -5 7
-2 9 8 5 25 -9 267 249 260 276 -2 7 0 9 4 5 4 -4 21 7 38 26 55 60 57 64 40
70 -8 3 -12 11 -9 17 4 6 14 8 22 4 13 -4 14 -3 4 9 -9 11 -9 16 0 21 6 4 14
3 18 -3 4 -6 15 -3 30 9 14 12 18 19 9 19 -8 0 -19 -5 -26 -12 -9 -9 -12 -7
-12 10 0 21 11 26 48 25 8 -1 11 5 8 14 -3 8 -1 11 5 8 6 -4 19 1 29 10 10 9
24 14 29 10 6 -3 11 1 11 9 0 9 4 16 9 16 5 0 13 9 16 20 3 11 13 20 20 20 8
0 26 18 42 40 15 22 34 40 42 40 8 0 11 3 8 7 -4 3 4 16 16 27 13 12 22 27 19
34 -2 7 2 11 10 10 7 -2 12 3 11 10 -2 6 1 12 5 12 5 0 14 16 22 35 7 19 18
31 23 28 6 -3 7 -1 4 4 -4 6 7 35 23 64 31 56 38 89 19 89 -6 0 -8 9 -4 21 5
14 0 27 -14 40 -25 23 -28 24 -34 2 -4 -14 -5 -13 -6 4 -1 23 -8 27 -107 78
-21 11 -41 22 -44 26 -14 15 -82 39 -113 39 -35 0 -62 -20 -39 -28 14 -4 17
-82 3 -82 -5 0 -11 -9 -14 -20 -7 -26 -43 -26 -57 0 -6 11 -15 18 -20 15 -13
-8 -62 16 -87 43 -27 30 -29 39 -7 44 11 2 3 12 -25 33 -22 17 -41 35 -41 41
0 6 -11 21 -24 33 -13 12 -26 35 -30 51 -4 24 -13 31 -48 41 -52 14 -86 16
-115 6 -17 -6 -23 -5 -23 7 0 9 -6 13 -14 10 -7 -3 -21 2 -30 11 -9 9 -23 14
-31 11 -8 -3 -17 -1 -20 4 -4 6 -26 15 -51 21 -24 6 -44 14 -44 18 1 3 9 22
20 41 10 19 29 55 41 80 21 40 71 130 105 186 12 20 15 20 82 9 39 -7 78 -20
87 -29 11 -10 33 -16 66 -16 l49 0 0 -40 c0 -38 -1 -40 -32 -40 l-33 0 25 -23
c20 -19 29 -22 43 -13 12 8 22 8 36 -1 16 -10 20 -8 32 13 10 20 10 29 1 44
-7 11 -12 42 -12 70 l0 50 -40 0 c-29 0 -40 -4 -40 -15 0 -26 -65 -19 -96 10
-15 14 -35 25 -45 25 -10 0 -23 8 -28 18 -10 16 -10 16 -11 0 0 -10 -4 -18
-10 -18 -14 0 -13 23 2 38 6 6 9 14 6 18 -4 3 -14 -8 -22 -24 -18 -35 -40 -53
-29 -25 16 43 46 84 53 73 5 -8 9 -7 13 5 4 9 3 13 -3 10 -12 -8 -13 15 -1 34
11 18 53 22 63 7 4 -6 10 -7 15 -2 4 4 0 12 -10 17 -9 6 -14 16 -11 22 5 8 3
8 -7 0 -26 -25 -30 -12 -7 30 37 69 56 89 43 45z m-349 -643 c-3 -10 5 -20 24
-30 17 -9 30 -19 30 -24 0 -13 28 -22 88 -28 43 -4 52 -2 52 11 0 31 47 -4 66
-50 10 -24 23 -44 29 -44 5 0 19 -18 29 -40 11 -22 23 -40 28 -40 4 0 8 -11 8
-25 0 -22 -4 -25 -39 -25 -22 0 -41 4 -43 9 -4 13 -66 16 -110 7 -29 -6 -47
-3 -81 13 -24 12 -50 21 -58 21 -8 0 -20 9 -27 20 -7 11 -19 20 -26 20 -8 0
-22 8 -32 17 -15 16 -17 16 -30 -2 -8 -10 -14 -15 -14 -10 0 11 80 187 93 203
13 17 20 15 13 -3z m-418 -608 c-3 -13 0 -24 6 -24 32 -2 70 -14 86 -28 9 -8
21 -15 27 -15 6 0 14 -6 16 -12 4 -10 7 -10 14 -1 13 18 53 4 53 -18 0 -12 7
-19 20 -19 25 0 25 -11 1 -32 -36 -31 -59 -38 -84 -29 -14 6 -28 15 -32 20 -3
6 -17 11 -31 11 -13 0 -24 6 -24 13 0 12 -89 69 -105 67 -14 -1 -6 18 21 52
34 44 38 45 32 15z m-87 -130 c-26 -43 -27 -55 -1 -32 11 10 20 14 20 9 -1
-15 -26 -44 -39 -44 -6 0 -11 -4 -11 -10 0 -5 -6 -7 -13 -4 -8 3 -18 -6 -25
-21 -7 -15 -8 -25 -2 -25 6 0 10 -19 9 -42 -1 -42 -1 -42 -11 -14 -13 35 -29
16 -18 -23 10 -38 5 -255 -8 -277 -9 -16 -11 -13 -17 21 -3 22 -11 49 -15 60
-5 11 -13 68 -18 128 l-8 107 28 27 c16 15 45 51 65 80 20 29 39 53 43 53 4 0
12 12 19 26 6 15 14 24 18 21 3 -3 -4 -21 -16 -40z"/>
<path d="M5906 8028 c-28 -1037 -33 -1167 -45 -1182 -7 -9 -17 -14 -21 -11 -4
2 -24 -10 -44 -28 l-37 -32 50 -80 c48 -75 51 -83 51 -147 0 -40 7 -84 16
-106 17 -42 12 -97 -11 -106 -19 -7 -19 -55 -1 -79 15 -19 56 -32 56 -17 0 4
-4 10 -9 12 -5 2 -12 19 -16 40 -6 30 -4 38 13 47 16 8 27 6 53 -12 21 -14 53
-24 83 -26 28 -1 70 -12 94 -23 38 -18 48 -19 81 -8 31 10 45 10 74 -1 29 -10
39 -10 51 0 9 8 16 20 16 28 0 16 36 72 55 86 5 4 20 5 33 2 32 -8 60 11 64
42 4 34 32 42 59 17 20 -18 26 -59 9 -69 -16 -10 -11 -25 9 -25 10 0 24 7 31
15 20 24 62 18 86 -12 18 -23 29 -27 75 -28 50 0 54 2 68 30 10 19 18 81 23
170 16 275 23 323 48 350 13 14 38 28 57 31 18 3 36 10 39 16 10 16 -17 38
-47 38 -47 0 -69 31 -69 97 0 82 28 634 40 798 6 77 13 183 16 235 2 52 7 114
9 138 l5 42 -529 0 -529 0 -6 -242z"/>
<path d="M7300 8213 c0 -74 -18 -442 -25 -508 -5 -52 -35 -619 -35 -665 0 -33
-33 -70 -63 -70 -26 -1 -67 -32 -67 -53 0 -8 6 -20 14 -26 8 -6 19 -32 25 -57
6 -25 18 -47 27 -51 43 -16 47 -109 28 -718 -8 -284 -5 -827 6 -839 11 -11 18
66 24 274 3 96 8 184 10 195 2 11 7 81 11 155 4 74 11 155 17 180 5 25 12 140
14 255 3 116 7 219 9 230 2 11 4 32 4 47 1 15 8 34 16 42 12 11 14 25 10 50
-6 30 -3 37 19 52 22 13 32 15 51 6 44 -20 27 -67 -26 -75 -13 -2 -24 -9 -23
-15 2 -28 5 -32 17 -32 24 0 57 -45 57 -77 0 -27 4 -32 33 -38 59 -12 67 -16
67 -35 0 -22 -23 -32 -56 -24 -17 4 -26 1 -30 -10 -17 -43 24 -86 81 -86 25 0
27 4 29 70 1 23 5 25 46 24 25 -1 59 -6 76 -10 32 -9 144 -105 144 -123 0 -6
5 -11 10 -11 6 0 10 6 10 13 0 8 4 7 10 -3 9 -13 10 -13 10 0 0 8 19 23 43 33
40 16 47 16 80 2 52 -21 84 -19 112 9 19 19 23 32 19 53 -7 34 27 83 56 83 10
0 22 5 25 10 3 6 14 10 23 10 10 0 25 9 35 20 16 19 17 82 17 895 l0 875 -480
0 -480 0 0 -57z"/>
<path d="M15 7901 c-22 -43 -22 -1001 0 -1001 27 0 33 75 41 460 8 377 7 547
-2 562 -10 15 -24 8 -39 -21z"/>
<path d="M7455 6110 c-38 -61 -41 -86 -12 -105 30 -19 92 -12 119 14 33 32 49
43 54 38 10 -10 14 -54 9 -94 -6 -38 -10 -43 -41 -52 -19 -5 -64 -7 -99 -4
l-64 5 -10 -40 c-8 -30 -8 -47 1 -69 14 -31 63 -79 88 -84 23 -6 91 41 89 60
-2 17 7 47 22 71 16 26 27 54 33 82 5 23 12 27 49 30 35 2 43 7 45 26 2 13 -3
25 -12 28 -9 3 -16 12 -16 19 0 19 -23 35 -55 37 -25 2 -58 32 -67 60 -2 6
-28 12 -56 14 -51 2 -54 1 -77 -36z"/>
<path d="M6500 6071 c-19 -4 -45 -13 -57 -19 -32 -17 -100 -15 -107 3 -9 26
-46 17 -64 -15 -19 -33 -42 -37 -81 -16 -21 12 -31 12 -64 0 -35 -12 -42 -12
-79 7 -42 22 -88 19 -88 -4 0 -8 20 -28 45 -46 25 -18 45 -40 45 -50 0 -19
-39 -61 -57 -61 -7 0 -15 -10 -19 -22 -15 -52 -63 -75 -93 -45 -10 10 -16 7
-31 -13 -11 -14 -20 -20 -20 -14 0 17 -31 27 -43 15 -7 -7 -1 -19 16 -37 15
-15 27 -30 27 -35 0 -5 6 -6 13 -3 8 3 20 -2 27 -11 7 -8 18 -15 25 -15 7 0
16 -11 19 -25 7 -29 30 -32 80 -11 33 14 53 46 41 65 -9 16 16 98 35 116 30
27 60 11 60 -31 0 -22 6 -37 15 -40 8 -4 15 -15 15 -25 0 -15 7 -19 36 -19 19
0 55 5 80 11 58 15 88 2 103 -43 9 -28 20 -36 62 -51 49 -18 51 -18 71 0 16
15 19 26 14 62 l-6 43 32 -6 c18 -3 46 -19 63 -35 16 -16 41 -34 55 -41 14 -7
31 -21 38 -32 16 -22 32 -23 76 -1 44 20 47 28 53 134 7 108 -8 145 -64 155
-31 6 -47 2 -85 -19 -27 -15 -54 -27 -61 -27 -6 0 -23 -9 -37 -20 -14 -11 -35
-20 -47 -20 -13 0 -23 -6 -23 -15 0 -8 -11 -26 -25 -40 -45 -44 -135 -28 -135
25 0 30 21 90 32 90 4 0 8 7 8 16 0 11 -6 14 -21 9 -15 -5 -19 -4 -15 4 9 14
43 14 51 1 7 -12 65 -14 65 -2 0 4 18 27 39 50 34 37 43 41 70 36 l32 -7 -28
42 c-27 42 -33 44 -93 32z"/>
<path d="M8165 5987 c-11 -7 -35 -23 -54 -36 l-34 -24 47 -41 c55 -48 54 -70
-3 -86 -21 -5 -46 -19 -56 -30 -15 -17 -30 -20 -99 -20 -51 1 -90 6 -106 15
-14 8 -44 14 -67 15 -23 0 -64 5 -92 11 -42 9 -54 8 -76 -7 -27 -17 -27 -18
-6 -26 12 -4 21 -13 21 -20 0 -6 9 -22 21 -34 l21 -22 -24 -8 c-12 -4 -61 -7
-108 -7 -104 2 -135 -12 -117 -52 7 -13 16 -25 20 -25 15 0 67 -44 67 -56 0
-13 -46 -28 -60 -19 -5 3 -19 1 -30 -5 -18 -9 -20 -21 -20 -99 0 -66 4 -92 15
-101 12 -10 16 -9 21 4 4 11 13 14 30 10 28 -7 33 16 8 36 -51 43 -34 88 40
108 53 14 76 2 76 -37 0 -35 41 -93 61 -88 10 3 23 -1 30 -9 6 -8 18 -14 25
-14 22 0 5 -29 -48 -83 -52 -53 -58 -66 -30 -68 53 -4 91 24 92 69 0 22 5 32
15 32 16 0 20 -12 8 -24 -4 -3 -8 -15 -10 -26 -2 -16 3 -20 25 -20 30 -1 63
-24 81 -59 14 -25 8 -51 -11 -51 -8 0 -21 -9 -30 -20 -15 -17 -27 -19 -82 -15
-36 2 -74 9 -85 15 -24 12 -34 13 -27 1 3 -4 -6 -19 -19 -31 -28 -26 -37 -62
-10 -40 8 6 30 12 48 13 26 1 41 -7 69 -36 39 -40 48 -43 79 -27 11 6 35 8 55
4 49 -9 98 -74 88 -118 -9 -43 -20 -53 -44 -38 -15 9 -22 9 -34 -3 -8 -9 -33
-15 -59 -15 l-44 0 -1 -39 c-2 -42 11 -59 31 -43 27 21 72 23 109 3 36 -20 37
-20 61 -1 14 11 49 22 82 26 37 5 63 14 75 27 18 19 19 19 44 1 14 -11 26 -22
26 -26 0 -5 11 -8 24 -8 36 0 44 35 16 65 -28 30 -20 53 20 61 l30 6 0 394 c0
343 -5 426 -22 386 -1 -4 -19 -20 -40 -35 l-36 -28 -20 21 c-12 13 -18 33 -17
58 1 33 4 38 30 42 25 5 30 10 30 33 -1 15 0 27 2 27 11 0 53 -25 53 -32 0 -4
5 -8 10 -8 6 0 10 51 10 133 l0 132 -27 13 c-32 15 -42 14 -68 -1z m77 -800
c9 -15 1 -46 -18 -68 -8 -9 -12 -23 -9 -32 4 -8 2 -18 -4 -22 -6 -3 -11 -16
-11 -27 0 -36 -38 -68 -82 -68 -34 0 -38 -3 -38 -25 0 -14 5 -25 10 -25 6 0
10 -11 10 -25 0 -28 -41 -61 -65 -51 -19 7 -19 32 0 40 22 8 18 26 -5 26 -12
0 -17 5 -14 13 2 7 -4 22 -16 32 -11 10 -20 23 -20 28 0 12 -48 57 -61 57 -14
0 -11 30 4 36 18 6 98 -28 116 -50 19 -23 70 -48 84 -42 7 2 5 5 -4 5 -23 1
-43 27 -29 36 7 5 9 20 6 41 -6 27 -3 35 14 44 11 6 20 17 20 26 0 8 7 17 15
20 8 4 15 14 15 23 0 10 3 21 7 25 11 11 65 -2 75 -17z"/>
<path d="M3457 5918 c-30 -24 -74 -56 -96 -71 -23 -16 -41 -35 -41 -43 0 -8
-4 -14 -8 -14 -5 0 -18 -18 -30 -39 -12 -22 -28 -41 -35 -44 -6 -2 2 -4 20 -3
18 1 38 7 45 14 13 13 38 17 38 6 0 -4 -8 -13 -17 -20 -17 -12 -17 -13 2 -19
11 -4 29 -11 40 -16 21 -9 57 -13 88 -11 11 1 17 9 15 19 -2 10 2 18 7 18 33
3 74 18 72 27 -3 16 53 29 98 22 47 -7 80 -35 62 -53 -8 -8 -6 -11 7 -11 9 0
15 -4 12 -9 -3 -4 -40 -11 -82 -15 -42 -3 -83 -11 -90 -17 -8 -6 -21 -9 -29
-5 -9 3 -18 0 -21 -8 -3 -7 -24 -19 -47 -27 -51 -16 -107 -48 -107 -60 0 -5
-6 -9 -14 -9 -17 0 -28 -24 -20 -45 4 -10 20 -15 46 -15 21 0 58 -9 80 -20 23
-11 50 -20 61 -20 13 0 17 -5 14 -15 -7 -16 4 -26 36 -29 60 -8 113 -19 117
-27 6 -9 73 -13 110 -6 62 12 155 68 163 98 4 16 11 19 26 14 15 -5 21 -2 21
9 0 9 4 16 9 16 15 0 28 41 30 98 1 25 6 35 21 39 14 4 20 14 20 32 0 15 8 36
18 47 10 11 17 25 14 32 -2 7 6 12 22 12 30 0 43 15 15 17 -26 2 -51 22 -43
34 3 5 0 23 -8 39 -14 33 -42 39 -56 13 -8 -13 -11 -7 -17 27 -6 38 -9 42 -20
27 -6 -9 -15 -14 -18 -10 -4 3 -28 7 -54 8 -46 2 -151 21 -183 33 -8 3 -37 7
-65 7 -27 1 -59 5 -70 9 -16 6 -17 6 -5 -3 13 -9 13 -11 -2 -11 -9 0 -20 5
-23 10 -15 24 -72 10 -128 -32z"/>
<path d="M1921 5675 c2 -55 -1 -117 -5 -137 -14 -67 -2 -100 49 -127 24 -13
42 -27 40 -31 -3 -4 2 -13 10 -20 8 -7 12 -16 9 -21 -3 -5 1 -12 10 -15 25
-10 28 -36 5 -60 -29 -31 -13 -58 45 -73 65 -16 72 -14 110 22 63 61 63 61 71
320 6 195 5 237 -6 238 -8 1 -87 2 -177 3 l-164 1 3 -100z"/>
<path d="M6120 5667 c-14 -7 -26 -22 -28 -34 -2 -11 -12 -29 -23 -39 -10 -9
-19 -23 -19 -29 0 -17 -47 -47 -67 -43 -9 2 -17 12 -19 22 -1 10 -10 26 -19
35 -14 14 -18 14 -42 1 -32 -18 -58 -79 -49 -113 4 -18 15 -26 40 -31 19 -4
49 -14 67 -23 l33 -16 36 42 c32 37 42 42 79 43 45 0 77 -20 92 -59 7 -19 12
-21 41 -12 22 6 52 5 91 -3 39 -8 60 -9 65 -2 10 14 79 33 149 40 103 11 150
-32 106 -96 -26 -38 -36 -46 -68 -57 -42 -14 -46 -43 -6 -43 18 0 31 5 31 12
0 7 15 25 33 41 27 24 38 27 72 22 22 -3 47 -13 57 -22 34 -31 48 -10 48 71 0
92 -11 126 -42 126 -14 0 -34 13 -51 35 -24 30 -34 35 -68 35 -22 0 -60 -5
-85 -11 -34 -9 -48 -9 -59 1 -19 16 -64 5 -106 -26 -18 -13 -39 -24 -46 -24
-8 0 -22 20 -33 45 -19 45 -20 45 -69 45 -40 0 -53 4 -65 22 -9 12 -16 30 -16
40 0 21 -24 23 -60 5z"/>
<path d="M2567 5573 c-15 -26 -16 -67 -3 -98 16 -39 10 -71 -18 -94 -9 -8 -16
-28 -16 -47 0 -28 5 -35 25 -40 14 -3 30 -15 36 -25 5 -11 19 -19 29 -19 11 0
20 -7 20 -15 0 -8 4 -15 9 -15 10 0 61 46 61 55 0 3 -12 31 -26 61 -14 30 -30
85 -36 122 -15 105 -20 117 -50 120 -14 2 -28 0 -31 -5z"/>
<path d="M5851 5336 c-20 -24 -2 -44 46 -51 26 -4 57 -14 70 -22 22 -15 27
-15 59 0 45 22 71 21 119 -3 23 -12 43 -16 48 -11 10 10 -8 51 -23 51 -6 0
-10 6 -10 13 0 36 -96 48 -138 19 -44 -31 -57 -31 -88 -6 -33 26 -66 31 -83
10z"/>
<path d="M6413 5336 c-10 -7 -38 -19 -63 -26 -60 -19 -90 -50 -90 -92 0 -19
-7 -44 -16 -57 -13 -19 -22 -22 -49 -17 -42 8 -60 -12 -56 -67 2 -45 15 -67
39 -67 8 0 23 -7 33 -16 22 -19 64 -12 73 12 4 10 1 32 -5 51 -6 19 -9 37 -6
40 3 3 28 5 55 5 l50 -1 14 45 c10 37 20 49 48 61 19 9 46 15 59 14 15 -2 21
1 16 8 -3 6 0 14 9 17 12 5 12 8 -2 24 -9 10 -25 29 -34 43 -21 30 -50 39 -75
23z"/>
<path d="M1723 5255 c-16 -11 -29 -23 -31 -27 -2 -4 -19 -10 -38 -14 -19 -3
-34 -10 -34 -15 0 -5 -10 -15 -23 -24 -18 -12 -29 -12 -53 -4 -23 9 -37 8 -69
-7 -22 -9 -47 -18 -55 -19 -35 -4 -59 -17 -65 -35 -16 -49 -98 -78 -126 -44
-9 11 -24 14 -48 11 -24 -3 -53 3 -89 19 -57 26 -71 24 -107 -16 -20 -22 -130
-80 -152 -80 -7 0 -13 -12 -13 -26 0 -15 -10 -36 -25 -49 -21 -21 -31 -23 -87
-18 -35 3 -77 14 -94 24 -59 36 -69 18 -32 -54 29 -55 32 -83 14 -121 -9 -20
-13 -46 -9 -74 4 -33 14 -48 47 -75 22 -19 51 -37 64 -41 23 -8 26 -1 22 56
-2 41 53 88 102 88 32 0 58 -33 58 -75 0 -23 5 -35 13 -35 8 0 26 -14 41 -31
15 -16 31 -29 36 -27 12 4 100 88 101 96 0 4 2 16 4 26 2 11 -1 28 -6 39 -8
14 -6 23 7 38 16 18 18 18 45 2 22 -13 29 -25 29 -48 0 -32 24 -75 41 -75 5 0
21 11 34 24 23 23 82 46 71 27 -9 -14 20 -21 34 -8 9 8 11 9 7 1 -4 -7 -1 -16
6 -22 13 -11 53 -10 172 7 74 10 97 4 115 -29 18 -34 11 -59 -25 -83 -25 -17
-32 -26 -23 -35 7 -7 19 -7 35 -1 31 12 121 1 150 -18 24 -16 43 -10 43 12 0
7 6 15 13 18 18 6 -10 37 -34 37 -21 0 -32 15 -37 49 -4 34 -20 61 -35 61 -11
0 -37 27 -70 74 -8 10 -31 21 -53 25 -49 8 -56 32 -14 48 33 13 40 45 16 78
-17 24 -50 27 -104 9 -30 -10 -49 -11 -62 -4 -27 14 -30 13 -30 -15 0 -14 -3
-25 -8 -25 -4 0 -12 -8 -17 -19 -69 -129 -75 -136 -108 -119 -14 7 -16 17 -11
63 6 52 5 55 -19 64 -23 9 -25 14 -20 51 5 34 2 44 -16 56 -15 11 -19 20 -12
32 4 9 6 23 4 29 -9 26 27 25 58 -1 17 -14 38 -26 47 -27 65 -4 85 -8 94 -17
13 -13 37 -2 88 40 49 39 70 37 182 -23 10 -5 24 -9 33 -9 11 0 13 -7 9 -28
-5 -24 0 -34 26 -55 17 -15 36 -27 42 -27 5 0 28 -14 49 -31 38 -30 53 -69 26
-69 -17 0 -67 -48 -67 -65 0 -11 14 -8 58 12 46 20 67 24 114 20 60 -5 98 10
98 40 0 11 -7 14 -25 11 -14 -3 -25 -1 -25 3 0 5 -9 9 -20 9 -10 0 -23 7 -28
16 -10 17 -4 55 8 64 11 8 40 80 40 100 0 25 26 43 68 47 49 5 68 21 48 41
-25 26 -85 17 -121 -18 -17 -16 -36 -30 -42 -30 -7 0 -14 -8 -17 -17 -9 -29
-96 -60 -96 -35 0 5 -18 18 -40 31 -33 19 -70 63 -70 86 0 3 18 5 41 5 28 0
38 -4 33 -11 -5 -9 1 -10 20 -5 26 6 84 -15 98 -38 4 -6 10 -7 14 -3 4 4 2 13
-4 19 -17 17 -15 31 3 24 8 -3 15 -2 15 3 0 5 -7 14 -15 21 -8 7 -15 23 -15
36 0 13 -4 24 -10 24 -5 0 -10 -7 -10 -15 0 -8 -7 -15 -15 -15 -26 0 -16 28
14 38 16 6 31 8 34 6 2 -3 16 9 30 26 28 32 26 60 -2 60 -9 0 -23 6 -30 13 -8
8 -42 12 -96 12 -68 0 -90 -4 -112 -20z m-676 -355 c-21 -83 -70 -110 -137
-75 -17 9 -32 15 -35 15 -19 -1 -23 2 -29 15 -3 8 0 28 5 45 12 33 41 46 86
37 14 -3 44 3 67 14 22 10 44 15 49 10 4 -4 1 -32 -6 -61z"/>
<path d="M2576 5145 c-13 -10 -20 -28 -21 -53 0 -20 -4 -43 -8 -50 -12 -18
-63 -15 -107 8 -50 26 -57 25 -115 -6 -26 -14 -55 -22 -63 -19 -15 6 -41 -21
-42 -44 0 -7 11 -26 25 -42 36 -44 20 -76 -51 -97 -22 -6 -49 -21 -60 -33 -19
-21 -19 -21 16 -50 40 -34 68 -37 100 -9 13 11 28 20 35 20 6 0 21 18 34 40
27 48 47 60 99 60 39 0 40 -1 40 -36 0 -44 -35 -80 -88 -90 -23 -5 -52 -25
-92 -66 -56 -57 -59 -59 -80 -44 -27 19 -77 21 -115 4 -36 -16 -109 -91 -93
-96 6 -2 1 -9 -11 -16 -32 -16 -47 -88 -25 -121 21 -32 20 -62 -1 -74 -17 -9
-16 -10 2 -10 22 0 109 -15 170 -29 22 -5 63 -10 92 -11 42 -2 54 2 62 18 7
12 7 22 2 25 -5 3 -7 15 -4 25 9 37 124 36 201 -2 28 -13 28 -20 -4 -37 -23
-13 -24 -15 -7 -21 10 -4 34 -5 53 -2 19 3 63 -2 97 -11 71 -19 174 -21 191
-4 9 9 21 9 50 0 47 -14 53 -14 71 -3 11 7 9 13 -9 31 -13 13 -20 29 -17 41 3
10 1 19 -4 19 -14 0 -11 20 5 36 19 18 45 18 52 -1 9 -22 34 -18 34 5 0 11 9
29 20 40 21 21 60 27 60 10 0 -5 -9 -10 -20 -10 -22 0 -44 -34 -36 -56 7 -18
26 -18 26 0 0 9 9 14 23 14 55 -3 77 2 77 19 0 10 -12 27 -27 40 -26 20 -26
22 -7 23 19 0 20 3 10 50 -11 53 -26 67 -26 25 0 -14 -7 -28 -15 -31 -8 -4
-12 -10 -9 -15 3 -5 -15 -14 -40 -21 -29 -8 -41 -15 -33 -20 6 -4 -2 -5 -18
-2 -22 4 -37 0 -54 -15 -31 -27 -42 -18 -13 10 21 19 22 21 5 44 -19 26 -49
34 -40 11 4 -9 -3 -16 -15 -19 -17 -5 -20 -11 -14 -37 7 -35 -16 -90 -38 -90
-42 0 -64 98 -27 122 15 9 17 16 9 33 -8 18 -5 30 14 59 12 19 28 36 35 36 12
0 29 38 20 46 -3 3 -22 -4 -43 -15 -27 -15 -48 -19 -71 -15 -25 5 -33 2 -42
-15 -8 -14 -21 -21 -41 -21 -27 0 -30 5 -47 58 -9 31 -21 60 -26 63 -4 3 4 11
18 17 14 7 31 25 36 41 5 15 21 34 34 41 19 10 27 10 46 -4 32 -22 61 -20 90
6 18 16 20 20 6 15 -11 -4 -24 -4 -30 0 -19 12 -80 33 -98 33 -8 0 -25 -9 -37
-20 l-22 -21 0 24 c0 14 -7 30 -15 37 -9 7 -12 16 -8 19 4 3 13 15 19 26 14
25 -12 73 -43 81 -13 4 -23 13 -23 21 0 10 6 12 20 8 25 -8 60 2 60 18 0 9
-39 97 -43 97 -1 0 -11 -7 -21 -15z"/>
<path d="M7181 5118 c-8 -17 -22 -33 -32 -35 -11 -3 -19 -9 -19 -13 0 -4 -11
-5 -25 -2 -57 10 -77 -61 -27 -96 15 -10 35 -22 45 -25 15 -5 18 -16 16 -57
-2 -36 2 -55 16 -70 23 -25 45 -25 95 0 22 11 50 20 63 20 31 0 62 23 52 39
-5 9 -18 11 -39 6 -17 -3 -39 -8 -48 -10 -10 -2 -30 11 -48 31 -27 32 -30 40
-26 87 3 29 8 66 12 84 4 20 1 38 -8 51 -13 20 -14 20 -27 -10z"/>
<path d="M0 4970 c0 -78 4 -104 16 -119 14 -15 21 -17 35 -8 13 8 15 15 7 24
-7 9 -6 14 6 19 9 3 16 12 16 19 0 20 29 26 74 15 60 -13 96 -3 111 33 7 17
11 37 8 43 -6 17 -34 22 -54 10 -24 -14 -119 8 -164 38 -21 14 -42 26 -46 26
-5 0 -9 -45 -9 -100z"/>
<path d="M5950 4899 c-8 -5 -32 -16 -52 -24 -40 -16 -48 -34 -23 -55 11 -9 14
-23 10 -44 -7 -37 -9 -177 -5 -371 2 -103 6 -145 17 -162 12 -18 13 -26 4 -37
-16 -19 0 -27 38 -20 32 7 39 22 19 42 -8 8 -4 20 16 47 15 19 31 35 37 35 15
0 11 19 -16 72 -33 66 -27 115 17 130 31 11 31 21 2 82 -15 32 -17 30 36 62
30 18 50 57 50 96 0 33 -26 78 -45 78 -18 0 -45 34 -45 58 0 16 -6 22 -22 21
-13 0 -30 -4 -38 -10z"/>
<path d="M0 4679 l0 -132 78 7 c42 3 137 9 210 13 129 6 162 15 162 44 0 27
-129 70 -207 69 -22 0 -41 9 -64 31 -17 17 -46 33 -64 36 -18 3 -47 18 -65 34
-17 16 -35 29 -41 29 -5 0 -9 -56 -9 -131z"/>
<path d="M7472 4743 c-6 -10 -11 -81 -13 -158 l-4 -140 32 -3 c22 -2 37 3 49
16 19 23 62 67 86 89 22 20 13 36 -12 23 -11 -6 -21 -6 -25 -1 -3 5 4 12 15
16 18 6 19 8 6 27 -13 18 -13 23 0 35 18 18 0 58 -22 49 -8 -3 -27 -3 -44 0
-22 5 -30 13 -35 35 -7 33 -20 37 -33 12z"/>
<path d="M7769 4559 c-17 -14 -44 -22 -79 -23 -42 -2 -56 -8 -71 -27 -20 -26
-25 -59 -9 -59 22 0 8 -38 -25 -67 -24 -21 -35 -40 -35 -58 0 -22 -3 -25 -13
-16 -8 6 -17 8 -21 4 -3 -4 -13 2 -20 13 -8 10 -18 15 -22 11 -9 -9 -25 -103
-27 -167 -2 -43 -1 -45 26 -46 16 -1 33 -7 37 -14 6 -9 8 -10 12 0 3 9 8 8 17
-4 11 -14 11 -16 -3 -16 -9 0 -16 -4 -16 -10 0 -5 21 -10 48 -10 47 0 47 1 25
18 -24 18 -55 114 -46 139 11 27 61 13 116 -33 21 -18 41 -24 74 -24 42 0 49
4 101 56 51 52 56 61 59 109 4 48 2 53 -19 59 -39 10 -57 7 -77 -15 -12 -13
-26 -19 -35 -16 -23 9 -20 34 5 40 11 3 23 15 26 26 3 11 13 23 22 26 9 3 29
16 44 28 27 23 27 24 12 60 -13 32 -20 37 -48 36 -17 0 -44 -9 -58 -20z"/>
<path d="M1080 4446 c-14 -14 -38 -27 -54 -30 -34 -6 -44 -14 -25 -20 8 -2 64
-8 124 -14 129 -13 244 -6 252 15 8 20 -25 51 -66 63 -29 8 -41 6 -69 -10 -42
-25 -57 -25 -89 0 -33 26 -43 25 -73 -4z"/>
<path d="M5257 4353 c-4 -3 -7 -14 -7 -23 0 -10 -8 -28 -19 -41 -10 -13 -20
-32 -22 -42 -2 -10 -8 -17 -13 -17 -15 3 -27 -27 -19 -47 6 -16 8 -15 13 7 5
19 14 26 43 31 21 3 40 2 43 -3 3 -4 14 -8 25 -8 28 0 57 -38 51 -65 -4 -21
-38 -45 -84 -59 -22 -7 -23 -20 -2 -40 8 -9 11 -16 6 -16 -23 0 -21 -31 3 -42
20 -9 28 -8 44 6 11 10 22 29 26 44 3 14 22 43 41 64 38 42 43 77 23 167 -10
48 -12 50 -52 56 -23 4 -51 14 -62 21 -22 16 -29 17 -38 7z"/>
<path d="M6405 4351 c-3 -6 -21 -11 -38 -11 -35 0 -94 -32 -103 -55 -4 -8 -13
-15 -21 -15 -8 0 -21 -7 -30 -15 -8 -8 -19 -13 -24 -10 -11 7 -23 -40 -14 -54
8 -14 38 -14 52 0 11 11 145 49 173 49 27 0 46 32 46 75 -1 29 -6 41 -18 43
-9 2 -19 -2 -23 -7z"/>
<path d="M8113 4241 c-10 -10 -33 -21 -52 -25 -19 -3 -40 -15 -48 -25 -11 -16
-17 -18 -42 -8 -22 8 -40 7 -77 -5 -44 -14 -49 -18 -47 -44 2 -38 25 -117 39
-135 17 -21 24 -97 11 -112 -31 -33 -37 -56 -21 -72 8 -8 19 -15 23 -15 5 0
25 -13 46 -30 21 -16 46 -30 57 -30 23 0 35 27 21 49 -14 22 2 61 24 61 32 0
59 -27 73 -72 26 -81 72 -124 119 -111 21 5 21 9 21 269 l0 264 -44 0 c-40 0
-44 2 -49 30 -7 34 -28 39 -54 11z"/>
<path d="M6103 3689 c-24 -12 -43 -25 -43 -30 0 -5 -18 -29 -40 -53 -22 -24
-40 -48 -40 -54 0 -16 30 -23 67 -16 28 5 38 14 50 43 17 42 34 54 83 61 38 5
51 30 30 55 -17 21 -58 18 -107 -6z"/>
<path d="M8162 3370 c-18 -11 -43 -20 -56 -20 -12 0 -31 -9 -40 -19 -16 -18
-16 -21 13 -54 19 -21 31 -46 31 -63 0 -17 12 -42 28 -61 15 -17 35 -44 44
-60 10 -15 23 -36 30 -45 17 -23 0 -52 -33 -56 -32 -5 -49 -20 -49 -43 0 -17
8 -19 65 -19 l65 0 0 200 c0 191 -1 200 -19 200 -11 0 -23 5 -26 10 -3 6 1 10
9 10 21 0 21 26 0 34 -23 9 -26 8 -62 -14z"/>
<path d="M7190 3200 c-23 -23 -34 -62 -27 -92 4 -12 2 -40 -4 -63 -19 -77 27
-128 65 -71 14 22 19 24 48 14 60 -19 173 -39 192 -34 11 3 26 1 35 -3 9 -5
35 -12 58 -16 56 -9 70 15 28 51 -24 21 -38 24 -101 24 -65 0 -75 3 -85 21 -6
13 -8 38 -5 61 4 27 3 37 -4 33 -18 -11 -57 3 -84 30 -14 13 -41 34 -60 45
-36 20 -36 20 -56 0z"/>
<path d="M7594 3125 c-10 -25 3 -43 34 -50 23 -5 32 -14 42 -45 17 -53 42 -78
86 -86 44 -8 64 7 41 31 -9 8 -14 21 -11 29 7 18 -67 82 -105 91 -17 4 -36 15
-41 26 -13 23 -38 25 -46 4z"/>
<path d="M109 2770 c-12 -16 -26 -27 -32 -23 -18 11 -26 -21 -22 -91 4 -61 14
-85 35 -86 3 0 19 28 35 63 24 50 35 63 56 65 32 4 55 44 34 62 -7 6 -17 10
-21 9 -22 -4 -34 2 -34 16 0 25 -28 17 -51 -15z"/>
<path d="M8070 2395 c-7 -8 -19 -15 -28 -15 -18 0 -102 -52 -102 -62 0 -5 -4
-8 -10 -8 -5 0 -10 11 -10 25 0 18 -5 25 -19 25 -26 0 -36 -17 -21 -35 14 -17
5 -35 -16 -35 -29 0 -74 -30 -74 -50 0 -20 33 -60 49 -60 5 0 14 7 21 15 7 8
18 15 26 15 19 0 54 -40 54 -62 0 -10 8 -21 18 -25 9 -3 24 -11 32 -18 44 -34
120 -34 120 0 0 8 21 35 46 61 38 38 52 45 75 42 l29 -5 0 74 0 74 -27 -3
c-23 -2 -29 -10 -39 -43 -9 -32 -16 -41 -37 -43 -17 -2 -38 5 -57 20 -26 21
-43 47 -21 34 11 -7 26 12 33 41 4 14 -1 28 -12 38 -15 14 -18 14 -30 0z"/>
<path d="M3244 1354 c1 -21 5 -25 24 -21 14 3 22 -1 22 -9 0 -16 43 -29 65
-20 9 3 13 2 10 -4 -3 -6 5 -14 19 -20 14 -5 26 -16 26 -24 0 -20 62 -64 68
-48 4 13 32 17 32 4 0 -13 81 -63 91 -56 5 3 9 11 9 18 0 7 11 22 25 34 29 25
31 44 10 66 -9 9 -15 24 -13 33 2 14 -4 18 -25 19 -15 1 -30 -3 -33 -8 -3 -5
-14 -6 -24 -3 -10 3 -21 1 -25 -5 -3 -5 -12 -10 -18 -10 -8 0 -8 3 1 9 9 5
-16 10 -65 14 -106 8 -117 10 -126 25 -5 7 -17 10 -27 7 -11 -3 -20 0 -24 10
-9 24 -24 17 -22 -11z"/>
</g>
</svg>
